<?xml version="1.0" encoding="UTF-8"?><svg id="fundo" xmlns="http://www.w3.org/2000/svg" xmlns:xlink="http://www.w3.org/1999/xlink" viewBox="0 0 373.36 373.36"><defs><style>.cls-1{fill:url(#Gradiente_sem_nome_3-2);}.cls-2{fill:url(#Gradiente_sem_nome_3);}.cls-3{fill:url(#Gradiente_sem_nome_3-4);}.cls-4{fill:#009;}.cls-5{fill:url(#Gradiente_sem_nome_3-3);}</style><linearGradient id="Gradiente_sem_nome_3" x1="297.65" y1="122.87" x2="325.39" y2="122.87" gradientUnits="userSpaceOnUse"><stop offset="0" stop-color="#fff"/><stop offset="1" stop-color="#009"/></linearGradient><linearGradient id="Gradiente_sem_nome_3-2" x1="56.72" y1="183.23" x2="151.39" y2="183.23" xlink:href="#Gradiente_sem_nome_3"/><linearGradient id="Gradiente_sem_nome_3-3" x1="162.88" y1="199.15" x2="233.45" y2="199.15" xlink:href="#Gradiente_sem_nome_3"/><linearGradient id="Gradiente_sem_nome_3-4" x1="246.64" y1="218.1" x2="311.06" y2="218.1" xlink:href="#Gradiente_sem_nome_3"/></defs><path class="cls-4" d="M301.46,77.1c30.79,0,55.83,25.05,55.83,55.83v107.5c0,30.79-25.05,55.83-55.83,55.83H71.9c-30.79,0-55.83-25.05-55.83-55.83v-107.5c0-30.79,25.05-55.83,55.83-55.83h229.56m0-1.39H71.9c-31.6,0-57.22,25.62-57.22,57.22v107.5c0,31.6,25.62,57.22,57.22,57.22h229.56c31.6,0,57.22-25.62,57.22-57.22v-107.5c0-31.6-25.62-57.22-57.22-57.22h0Z"/><rect class="cls-2" x="297.65" y="109" width="27.74" height="27.74" rx="10.99" ry="10.99"/><g><path class="cls-1" d="M115.97,196.79h-33.06l-5.55,15.03c-1.33,3.1-1.99,5.76-1.99,7.98,0,.57,.2,1.52,.59,2.87,.49,1.24,1.13,2.13,1.92,2.68,.79,.54,1.92,.99,3.4,1.35s2.63,.75,3.47,1.16c.49,.36,.74,.75,.74,1.16,0,.31-.16,.6-.48,.85-.32,.26-.7,.39-1.14,.39h-1.7c-1.24,0-3.11-.11-5.62-.31-2.51-.21-4.36-.31-5.55-.31-.59,0-1.09,.02-1.51,.04-.42,.03-1.1,.07-2.04,.12-.94,.05-1.97,.11-3.1,.2-1.14,.08-2.15,.11-3.03,.11-2.02,0-3.31-.16-3.85-.47-.49-.36-.74-.67-.74-.93,0-.57,.38-1.03,1.15-1.4,.76-.36,1.44-.54,2.03-.54,3.4-.41,6.14-2.04,8.21-4.88,2.07-2.84,3.9-6.4,5.47-10.69l29.07-72.68c.64-1.65,1.33-2.48,2.07-2.48,1.08,0,1.99,.93,2.74,2.79l28.77,76.01c1.38,3.67,2.82,6.34,4.32,8.02,1.51,1.68,2.8,2.69,3.88,3.02s2.4,.62,3.96,.85,2.5,.71,2.85,1.43c.1,.11,.15,.34,.15,.7,0,.83-1.31,1.24-3.92,1.24-1.78,0-4.44-.05-7.99-.16-3.55-.1-6.14-.15-7.76-.15-3.35,0-5.82,.05-7.4,.15-.25,0-.49,.02-.74,.04-.25,.02-.7,.07-1.37,.11s-1.39,.11-2.18,.2c-.79,.08-1.53,.11-2.22,.11-2.62,0-4.19-.41-4.74-1.24v-.31c0-.47,.42-.88,1.26-1.24,.84-.36,1.48-.54,1.92-.54,5.18-.41,7.76-2.27,7.76-5.58,0-1.29-.66-3.98-1.99-8.06l-6.06-16.66Zm-31.51-3.95h30.32l-14.72-39.52-15.6,39.52Z"/><path class="cls-5" d="M183.97,218.34c0,.16-.01,.3-.04,.43-.02,.13-.05,.27-.11,.42,0,2.53,.27,4.25,.81,5.15,.54,.9,1.76,1.59,3.65,2.05s3.31,.85,4.24,1.16c.56,.15,.83,.59,.83,1.32,0,.67-.27,1.08-.83,1.24-.29,0-.59,.01-.88,.04-.3,.03-.64,.07-1.04,.12-1.28,0-3.6-.11-6.95-.31-3.35-.21-5.17-.31-5.47-.31s-2.09,.1-5.4,.31c-3.29,.21-5.69,.31-7.16,.31-.4-.05-.75-.09-1.07-.12s-.58-.04-.77-.04c-.59-.21-.89-.57-.89-1.08,0-.1,.1-.36,.3-.77,.2-.41,.4-.64,.59-.69,1.19-.47,2.5-.87,3.96-1.2,1.46-.33,2.45-.68,3-1.04,.54-.36,.96-1.07,1.26-2.13s.44-2.67,.44-4.84v-33.89c0-6.04-1.97-9.11-5.92-9.21-.74,0-1.5-.21-2.29-.62-.79-.42-1.18-.77-1.18-1.08,0-.57,.71-.93,2.14-1.08,3.01-.68,6.04-1.59,9.1-2.72,3.06-1.13,4.9-1.69,5.54-1.69,1.19,0,1.99,.85,2.41,2.53,.42,1.69,.78,5.32,1.07,10.87,5.31-8.63,12.32-12.94,21.02-12.94,1.92,0,3.74,.18,5.46,.54,2.87,.41,5.49,1.42,7.85,3.02,2.35,1.6,4.1,3.7,5.23,6.28,.79,2.17,1.19,5.19,1.19,9.06v30.91c0,2.95,.26,4.9,.77,5.85,.52,.96,1.74,1.68,3.66,2.17,1.93,.49,3.33,.89,4.22,1.2,.5,.1,.75,.6,.75,1.47,0,.57-.21,.93-.6,1.08-.3,0-.6,.01-.89,.04-.3,.03-.64,.07-1.04,.12-1.33,0-3.65-.11-6.97-.31-3.31-.21-5.18-.31-5.62-.31-.4,0-2.25,.1-5.56,.31-3.31,.21-5.6,.31-6.89,.31-.39-.05-.74-.09-1.04-.12-.29-.03-.56-.04-.81-.04-.61-.16-.91-.57-.91-1.24,0-.73,.3-1.16,.91-1.32,.93-.31,2.35-.69,4.25-1.16,1.89-.47,3.1-1.14,3.61-2.02,.52-.87,.78-2.6,.78-5.19v-31.88l-.15-.16c0-4.64-1.12-8.2-3.36-10.67-2.23-2.48-5-3.72-8.29-3.72-2.61,0-5.24,.81-7.9,2.44s-4.82,3.96-6.49,7c-1.67,3.05-2.5,6.5-2.5,10.37v25.76Z"/><path class="cls-3" d="M263.36,210.27c-4.39-1.7-7.89-4.39-10.5-8.06-2.62-3.67-3.92-7.65-3.92-11.93s1.31-8.37,3.92-12.25c2.22-3.2,5.06-5.59,8.51-7.16s7.2-2.36,11.24-2.36c3.26,0,6.49,.53,9.69,1.59,3.2,1.06,5.92,2.54,8.13,4.45,5.52-3.82,10.13-5.73,13.83-5.73,2.12,0,3.78,.63,4.99,1.9,1.21,1.27,1.81,2.65,1.81,4.15,0,1.91-.72,3.23-2.14,3.95-.69,.47-1.33,.7-1.92,.7-.69,0-1.22-.14-1.59-.43-.37-.28-1.01-.88-1.92-1.78-.91-.9-1.73-1.59-2.48-2.05-.74-.47-1.58-.7-2.51-.7-1.58,0-3.55,.75-5.92,2.25,3.1,4.9,4.66,9.71,4.66,14.41v1.94c-.15,3.26-1.1,6.26-2.85,9.03s-4.08,5-6.99,6.7c-1.72,.93-3.61,1.61-5.66,2.05-2.04,.44-4.26,.74-6.65,.89-2.39,.16-4.65,.29-6.77,.39-2.67,.15-5.14,.64-7.43,1.47-2.29,.83-3.44,2.28-3.44,4.34,.05,.16,.09,.3,.11,.43,.02,.13,.03,.27,.03,.42,.25,2.64,3.92,3.96,11.02,3.96,.69-.05,1.32-.09,1.89-.12,.57-.02,1.17-.04,1.82-.04,8.43,.1,15.29,1.01,20.56,2.71,5.27,1.7,8.8,5.66,10.58,11.86,.64,2.79,.96,4.96,.96,6.51,0,2.69-.47,5.35-1.4,7.98-.94,2.63-2.28,4.97-4.03,7.01s-3.88,3.71-6.4,5c-5.52,2.63-11.64,3.96-18.34,3.96-10.16,0-17.88-2.84-23.15-8.51-2.96-3.25-4.44-6.9-4.44-10.98s1.48-7.01,4.44-9.28c2.08-1.39,4.24-2.08,6.51-2.08,1.78,0,2.89,.59,3.33,1.78v.15c0,.41-.58,1.07-1.74,1.97s-1.79,1.45-1.89,1.66c-1.53,1.8-2.29,4.17-2.29,7.11s.72,5.3,2.15,7.27c1.72,2.52,4.22,4.42,7.47,5.68,3.26,1.26,6.76,1.9,10.51,1.9,3.99,0,7.49-.57,10.5-1.7,3.15-1.24,5.66-3.17,7.5-5.8,1.85-2.63,2.77-5.43,2.77-8.42s-.91-5.59-2.74-8.12c-1.63-2.16-4.05-3.58-7.28-4.25-3.23-.67-7.07-1.01-11.5-1.01h-3.77c-5.13,0-9.63-.89-13.5-2.69-3.87-1.79-5.83-5.03-5.88-9.71,0-6.2,4.04-10.33,12.13-12.4Zm23.15-19.84c0-2.94-.48-5.95-1.45-9.03-.96-3.07-2.45-5.61-4.47-7.63-2.03-2.02-4.49-3.02-7.4-3.02-4.15,0-7.35,2.03-9.62,6.08-2.27,4.05-3.4,8.49-3.4,13.29s1.15,9.08,3.44,13.13c2.29,4.06,5.48,6.08,9.58,6.08l.29-.16c3.99,0,7.16-2,9.5-6,2.34-4,3.52-8.25,3.52-12.75Z"/></g></svg>