<?xml version="1.0" encoding="UTF-8"?><svg xmlns="http://www.w3.org/2000/svg" viewBox="0 0 400 400"><defs><style>.cls-1{fill:#fff;}.cls-2{font-size:22px;}.cls-2,.cls-3{font-family:MyriadPro-Regular, 'Myriad Pro';}.cls-4{letter-spacing:0em;}.cls-5{letter-spacing:0em;}.cls-3{font-size:11px;}.cls-6{fill:#7db28b;}.cls-7{fill:none;stroke:#7db28b;stroke-miterlimit:10;stroke-width:2px;}</style></defs><g id="fundo"><g><rect class="cls-1" x=".5" y=".5" width="399" height="399"/><path class="cls-1" d="M399,1V399H1V1H399m1-1H0V400H400V0h0Z"/></g></g><g id="text"><text class="cls-2" transform="translate(123.41 31.24)"><tspan x="0" y="0">non linear listing</tspan></text><text class="cls-3" transform="translate(300.95 79.03)"><tspan x="0" y="0">i</tspan><tspan class="cls-4" x="2.57" y="0">t</tspan><tspan class="cls-5" x="6.15" y="0">em </tspan><tspan class="cls-4" x="23.17" y="0">t</tspan><tspan x="26.74" y="0">o </tspan><tspan x="0" y="13.2">be lis</tspan><tspan class="cls-4" x="23.63" y="13.2">t</tspan><tspan x="27.2" y="13.2">ed</tspan></text><circle class="cls-6" cx="318" cy="102" r="3"/><text class="cls-3" transform="translate(186.95 118.03)"><tspan x="0" y="0">i</tspan><tspan class="cls-4" x="2.57" y="0">t</tspan><tspan class="cls-5" x="6.15" y="0">em </tspan><tspan class="cls-4" x="23.17" y="0">t</tspan><tspan x="26.74" y="0">o </tspan><tspan x="0" y="13.2">be lis</tspan><tspan class="cls-4" x="23.63" y="13.2">t</tspan><tspan x="27.2" y="13.2">ed</tspan></text><circle class="cls-6" cx="204" cy="141" r="3"/><text class="cls-3" transform="translate(264.95 177.03)"><tspan x="0" y="0">i</tspan><tspan class="cls-4" x="2.57" y="0">t</tspan><tspan class="cls-5" x="6.15" y="0">em </tspan><tspan class="cls-4" x="23.17" y="0">t</tspan><tspan x="26.74" y="0">o </tspan><tspan x="0" y="13.2">be lis</tspan><tspan class="cls-4" x="23.63" y="13.2">t</tspan><tspan x="27.2" y="13.2">ed</tspan></text><circle class="cls-6" cx="282" cy="200" r="3"/><text class="cls-3" transform="translate(124.95 197.03)"><tspan x="0" y="0">i</tspan><tspan class="cls-4" x="2.57" y="0">t</tspan><tspan class="cls-5" x="6.15" y="0">em </tspan><tspan class="cls-4" x="23.17" y="0">t</tspan><tspan x="26.74" y="0">o </tspan><tspan x="0" y="13.2">be lis</tspan><tspan class="cls-4" x="23.63" y="13.2">t</tspan><tspan x="27.2" y="13.2">ed</tspan></text><circle class="cls-6" cx="142" cy="220" r="3"/><text class="cls-3" transform="translate(64.95 278.03)"><tspan x="0" y="0">i</tspan><tspan class="cls-4" x="2.57" y="0">t</tspan><tspan class="cls-5" x="6.15" y="0">em </tspan><tspan class="cls-4" x="23.17" y="0">t</tspan><tspan x="26.74" y="0">o </tspan><tspan x="0" y="13.2">be lis</tspan><tspan class="cls-4" x="23.63" y="13.2">t</tspan><tspan x="27.2" y="13.2">ed</tspan></text><circle class="cls-6" cx="82" cy="301" r="3"/><text class="cls-3" transform="translate(131.95 328.03)"><tspan x="0" y="0">i</tspan><tspan class="cls-4" x="2.57" y="0">t</tspan><tspan class="cls-5" x="6.15" y="0">em </tspan><tspan class="cls-4" x="23.17" y="0">t</tspan><tspan x="26.74" y="0">o </tspan><tspan x="0" y="13.2">be lis</tspan><tspan class="cls-4" x="23.63" y="13.2">t</tspan><tspan x="27.2" y="13.2">ed</tspan></text><circle class="cls-6" cx="149" cy="351" r="3"/><text class="cls-3" transform="translate(206.95 248.03)"><tspan x="0" y="0">i</tspan><tspan class="cls-4" x="2.57" y="0">t</tspan><tspan class="cls-5" x="6.15" y="0">em </tspan><tspan class="cls-4" x="23.17" y="0">t</tspan><tspan x="26.74" y="0">o </tspan><tspan x="0" y="13.2">be lis</tspan><tspan class="cls-4" x="23.63" y="13.2">t</tspan><tspan x="27.2" y="13.2">ed</tspan></text><circle class="cls-6" cx="224" cy="271" r="3"/><text class="cls-3" transform="translate(328.95 235.03)"><tspan x="0" y="0">i</tspan><tspan class="cls-4" x="2.57" y="0">t</tspan><tspan class="cls-5" x="6.15" y="0">em </tspan><tspan class="cls-4" x="23.17" y="0">t</tspan><tspan x="26.74" y="0">o </tspan><tspan x="0" y="13.2">be lis</tspan><tspan class="cls-4" x="23.63" y="13.2">t</tspan><tspan x="27.2" y="13.2">ed</tspan></text><circle class="cls-6" cx="346" cy="258" r="3"/><text class="cls-3" transform="translate(258.95 315.03)"><tspan x="0" y="0">i</tspan><tspan class="cls-4" x="2.57" y="0">t</tspan><tspan class="cls-5" x="6.15" y="0">em </tspan><tspan class="cls-4" x="23.17" y="0">t</tspan><tspan x="26.74" y="0">o </tspan><tspan x="0" y="13.2">be lis</tspan><tspan class="cls-4" x="23.63" y="13.2">t</tspan><tspan x="27.2" y="13.2">ed</tspan></text><circle class="cls-6" cx="276" cy="338" r="3"/><text class="cls-3" transform="translate(64.95 102.03)"><tspan x="0" y="0">i</tspan><tspan class="cls-4" x="2.57" y="0">t</tspan><tspan class="cls-5" x="6.15" y="0">em </tspan><tspan class="cls-4" x="23.17" y="0">t</tspan><tspan x="26.74" y="0">o </tspan><tspan x="0" y="13.2">be lis</tspan><tspan class="cls-4" x="23.63" y="13.2">t</tspan><tspan x="27.2" y="13.2">ed</tspan></text><circle class="cls-6" cx="82" cy="125" r="3"/><polyline class="cls-7" points="318 102 318 141 204 141"/><polyline class="cls-7" points="222.92 141 222.92 200.58 268.64 200.58 282 200.58"/><polyline class="cls-7" points="268.64 200.58 268.64 258 346 258"/><polyline class="cls-7" points="223 170.79 82 170.79 82 125"/><polyline class="cls-7" points="187.63 171.96 187.63 220 142 220"/><polyline class="cls-7" points="174.32 220 174.32 271 224 271"/><polyline class="cls-7" points="207.71 271 207.71 338 276 338"/><line class="cls-7" x1="207.71" y1="301" x2="82" y2="301"/><polyline class="cls-7" points="115.52 301 115.52 351 149 351"/></g></svg>