<?xml version="1.0" encoding="UTF-8"?><svg xmlns="http://www.w3.org/2000/svg" viewBox="0 0 400 400"><defs><style>.cls-1{fill:#fff;}.cls-2{letter-spacing:-.01em;}.cls-3{letter-spacing:-.01em;}.cls-4{font-size:12px;}.cls-4,.cls-5,.cls-6{font-family:MyriadPro-Regular, 'Myriad Pro';}.cls-7{letter-spacing:.02em;}.cls-8{letter-spacing:0em;}.cls-9{letter-spacing:0em;}.cls-10{letter-spacing:0em;}.cls-11{letter-spacing:0em;}.cls-12{letter-spacing:0em;}.cls-13{letter-spacing:0em;}.cls-14{letter-spacing:-.01em;}.cls-15{letter-spacing:0em;}.cls-16{letter-spacing:0em;}.cls-17{letter-spacing:.01em;}.cls-18{letter-spacing:0em;}.cls-19{letter-spacing:.02em;}.cls-5{font-size:30px;}.cls-20{stroke-width:7px;}.cls-20,.cls-21{fill:none;stroke:#7db28b;stroke-miterlimit:10;}.cls-22{fill:#bf6060;}.cls-23{letter-spacing:-.01em;}.cls-24{letter-spacing:0em;}.cls-6{font-size:11px;}.cls-21{stroke-width:6px;}.cls-25{letter-spacing:.01em;}.cls-26{fill:#7db28b;}.cls-27{letter-spacing:-.01em;}</style></defs><g id="fundo"><g><rect class="cls-1" x="-.5" y=".5" width="399" height="399"/><path class="cls-1" d="M398,1V399H0V1H398m1-1H-1V400H399V0h0Z"/></g></g><g id="itens"><path class="cls-22" d="M200,85.12c31.22,0,60.57,12.16,82.64,34.23,22.07,22.07,34.23,51.42,34.23,82.64s-12.16,60.57-34.23,82.64c-22.07,22.07-51.42,34.23-82.64,34.23s-60.57-12.16-82.64-34.23c-22.07-22.07-34.23-51.42-34.23-82.64s12.16-60.57,34.23-82.64c22.07-22.07,51.42-34.23,82.64-34.23m0-19.12c-75.11,0-136,60.89-136,136s60.89,136,136,136,136-60.89,136-136-60.89-136-136-136h0Z"/><g><circle class="cls-26" cx="199.42" cy="76.4" r="50.5"/><path class="cls-1" d="M199.42,31.4c24.81,0,45,20.19,45,45s-20.19,45-45,45-45-20.19-45-45,20.19-45,45-45m0-11c-30.93,0-56,25.07-56,56s25.07,56,56,56,56-25.07,56-56-25.07-56-56-56h0Z"/></g><g><circle class="cls-26" cx="200" cy="325.9" r="50.5"/><path class="cls-1" d="M200,280.9c24.81,0,45,20.19,45,45s-20.19,45-45,45-45-20.19-45-45,20.19-45,45-45m0-11c-30.93,0-56,25.07-56,56s25.07,56,56,56,56-25.07,56-56-25.07-56-56-56h0Z"/></g><g><circle class="cls-26" cx="74.42" cy="201.9" r="50.5"/><path class="cls-1" d="M74.42,156.9c24.81,0,45,20.19,45,45s-20.19,45-45,45-45-20.19-45-45,20.19-45,45-45m0-11c-30.93,0-56,25.07-56,56s25.07,56,56,56,56-25.07,56-56-25.07-56-56-56h0Z"/></g><g><circle class="cls-26" cx="323.84" cy="200.75" r="50.5"/><path class="cls-1" d="M323.84,155.75c24.81,0,45,20.19,45,45s-20.19,45-45,45-45-20.19-45-45,20.19-45,45-45m0-11c-30.93,0-56,25.07-56,56s25.07,56,56,56,56-25.07,56-56-25.07-56-56-56h0Z"/></g><circle class="cls-26" cx="200" cy="202" r="62"/><rect class="cls-26" x="8.07" y="352" width="141" height="42"/><rect class="cls-26" x="249" y="354" width="141" height="42"/><rect class="cls-26" x="248.5" y="6.5" width="141" height="42"/><rect class="cls-26" x="4" y="6.25" width="141" height="42"/><polyline class="cls-20" points="37.5 201.5 12.5 201.5 12.5 366.04"/><polyline class="cls-20" points="200 89 200 25.68 140.68 25.68"/><polyline class="cls-20" points="333 202 386.08 202 386.08 36.28"/><polyline class="cls-21" points="200.5 326.5 200.5 375.5 253.5 375.5"/></g><g id="text"><text class="cls-4" transform="translate(183.58 66.72)"><tspan class="cls-19" x="0" y="0">I</tspan><tspan class="cls-18" x="3.06" y="0">t</tspan><tspan x="6.96" y="0">em 1</tspan><tspan x="-21.3" y="14.4">with some </tspan><tspan class="cls-18" x="33.42" y="14.4">t</tspan><tspan class="cls-11" x="37.32" y="14.4">e</tspan><tspan class="cls-25" x="43.29" y="14.4">x</tspan><tspan class="cls-13" x="49.01" y="14.4">t</tspan></text><text class="cls-4" transform="translate(184 322.22)"><tspan class="cls-19" x="0" y="0">I</tspan><tspan class="cls-18" x="3.06" y="0">t</tspan><tspan x="6.96" y="0">em 3</tspan><tspan x="-21.3" y="14.4">with some </tspan><tspan class="cls-18" x="33.42" y="14.4">t</tspan><tspan class="cls-11" x="37.32" y="14.4">e</tspan><tspan class="cls-25" x="43.29" y="14.4">x</tspan><tspan class="cls-13" x="49.01" y="14.4">t</tspan></text><text class="cls-4" transform="translate(58.58 190.22)"><tspan class="cls-19" x="0" y="0">I</tspan><tspan class="cls-18" x="3.06" y="0">t</tspan><tspan x="6.96" y="0">em 2</tspan><tspan x="-21.3" y="14.4">with some </tspan><tspan class="cls-18" x="33.42" y="14.4">t</tspan><tspan class="cls-11" x="37.32" y="14.4">e</tspan><tspan class="cls-25" x="43.29" y="14.4">x</tspan><tspan class="cls-13" x="49.01" y="14.4">t</tspan></text><text class="cls-6" transform="translate(309.32 191.37)"><tspan class="cls-7" x="0" y="0">I</tspan><tspan class="cls-8" x="2.8" y="0">t</tspan><tspan x="6.38" y="0">em 4</tspan><tspan x="-19.52" y="13.2">with some </tspan><tspan class="cls-12" x="30.63" y="13.2">t</tspan><tspan class="cls-15" x="34.21" y="13.2">e</tspan><tspan class="cls-17" x="39.69" y="13.2">x</tspan><tspan class="cls-16" x="44.92" y="13.2">t</tspan></text><text class="cls-6" transform="translate(33.25 20.95)"><tspan class="cls-3" x="0" y="0">C</tspan><tspan x="6.26" y="0">onsequen</tspan><tspan class="cls-8" x="52.14" y="0">c</tspan><tspan x="57" y="0">e one</tspan><tspan x="-20.79" y="13.2">or some other </tspan><tspan class="cls-10" x="45.82" y="13.2">r</tspan><tspan x="49.3" y="13.2">ele</tspan><tspan class="cls-24" x="62.92" y="13.2">v</tspan><tspan x="68.17" y="13.2">a</tspan><tspan class="cls-24" x="73.47" y="13.2">n</tspan><tspan x="79.53" y="13.2">t in</tspan><tspan class="cls-2" x="94.18" y="13.2">f</tspan><tspan x="97.25" y="13.2">o</tspan></text><text class="cls-6" transform="translate(37.2 367.45)"><tspan class="cls-14" x="0" y="0">C</tspan><tspan x="6.26" y="0">onsequen</tspan><tspan class="cls-12" x="52.14" y="0">c</tspan><tspan x="57" y="0">e </tspan><tspan class="cls-9" x="64.84" y="0">t</tspan><tspan class="cls-10" x="68.58" y="0">w</tspan><tspan x="76.57" y="0">o</tspan><tspan x="-20.73" y="13.2">or some other </tspan><tspan class="cls-10" x="45.87" y="13.2">r</tspan><tspan x="49.36" y="13.2">ele</tspan><tspan class="cls-24" x="62.98" y="13.2">v</tspan><tspan x="68.22" y="13.2">a</tspan><tspan class="cls-24" x="73.52" y="13.2">n</tspan><tspan x="79.58" y="13.2">t in</tspan><tspan class="cls-2" x="94.24" y="13.2">f</tspan><tspan x="97.31" y="13.2">o</tspan></text><text class="cls-6" transform="translate(274.95 367.45)"><tspan class="cls-3" x="0" y="0">C</tspan><tspan x="6.26" y="0">onsequen</tspan><tspan class="cls-8" x="52.14" y="0">c</tspan><tspan x="57" y="0">e th</tspan><tspan class="cls-10" x="74.59" y="0">r</tspan><tspan x="78.08" y="0">ee</tspan><tspan x="-17.49" y="13.2">or some other </tspan><tspan class="cls-10" x="49.12" y="13.2">r</tspan><tspan x="52.6" y="13.2">ele</tspan><tspan class="cls-24" x="66.22" y="13.2">v</tspan><tspan x="71.47" y="13.2">a</tspan><tspan class="cls-24" x="76.77" y="13.2">n</tspan><tspan x="82.83" y="13.2">t in</tspan><tspan class="cls-2" x="97.48" y="13.2">f</tspan><tspan x="100.55" y="13.2">o</tspan></text><text class="cls-6" transform="translate(277.69 20.95)"><tspan class="cls-3" x="0" y="0">C</tspan><tspan x="6.26" y="0">onsequen</tspan><tspan class="cls-8" x="52.14" y="0">c</tspan><tspan x="57" y="0">e </tspan><tspan class="cls-23" x="64.84" y="0">f</tspan><tspan x="67.91" y="0">our</tspan><tspan x="-20.23" y="13.2">or some other </tspan><tspan class="cls-10" x="46.37" y="13.2">r</tspan><tspan x="49.86" y="13.2">ele</tspan><tspan class="cls-24" x="63.48" y="13.2">v</tspan><tspan x="68.72" y="13.2">a</tspan><tspan class="cls-24" x="74.02" y="13.2">n</tspan><tspan x="80.09" y="13.2">t in</tspan><tspan class="cls-2" x="94.74" y="13.2">f</tspan><tspan x="97.81" y="13.2">o</tspan></text><text class="cls-5" transform="translate(173.21 208.8)"><tspan class="cls-27" x="0" y="0">T</tspan><tspan x="14.55" y="0">itle</tspan></text></g></svg>