<?xml version="1.0" encoding="UTF-8"?><svg xmlns="http://www.w3.org/2000/svg" viewBox="0 0 400 400"><defs><style>.cls-1{stroke-width:.73px;}.cls-1,.cls-2,.cls-3,.cls-4,.cls-5,.cls-6,.cls-7,.cls-8,.cls-9,.cls-10,.cls-11,.cls-12,.cls-13{stroke-miterlimit:10;}.cls-1,.cls-2,.cls-6,.cls-7,.cls-10,.cls-11,.cls-12{fill:none;}.cls-1,.cls-7{stroke:#000;}.cls-2{stroke:#3d6548;stroke-width:4.18px;}.cls-14,.cls-15{fill:#fff;}.cls-3{stroke:#f7f7f7;}.cls-3,.cls-4,.cls-9{fill:#7db28b;}.cls-4{stroke:#7db28b;stroke-width:4px;}.cls-15{font-size:24px;}.cls-15,.cls-16{font-family:MyriadPro-Regular, 'Myriad Pro';}.cls-16{font-size:12px;}.cls-5{fill:#ffdc80;}.cls-5,.cls-8,.cls-9,.cls-13{stroke:#fff;}.cls-6{stroke:#050505;}.cls-7{stroke-width:.75px;}.cls-8,.cls-17{fill:#bf6060;}.cls-18{letter-spacing:-.01em;}.cls-19{letter-spacing:0em;}.cls-10{stroke:#bf6060;}.cls-10,.cls-12{stroke-width:3px;}.cls-11{stroke:#010205;stroke-width:1.36px;}.cls-20{letter-spacing:0em;}.cls-12{stroke:#ffdc80;}.cls-21{letter-spacing:.01em;}.cls-13{fill:#3d6548;}.cls-22{letter-spacing:-.01em;}</style></defs><g id="fundo"><g><rect class="cls-14" x=".5" y=".5" width="399" height="399"/><path class="cls-14" d="M399,1V399H1V1H399m1-1H0V400H400V0h0Z"/></g></g><g id="text"><line class="cls-4" x1="55.06" y1="192.32" x2="55.06" y2="119.48"/><rect class="cls-9" x="8.56" y="189.48" width="93" height="28"/><rect class="cls-3" x="1.85" y="16.27" width="106.41" height="98.67" rx="20.4" ry="20.4" transform="translate(120.66 10.55) rotate(90)"/><text class="cls-16" transform="translate(22.63 53.92)"><tspan class="cls-18" x="0" y="0">L</tspan><tspan x="5.5" y="0">o</tspan><tspan class="cls-22" x="12.08" y="0">r</tspan><tspan x="15.89" y="0">em ipsum </tspan><tspan x="-3.04" y="14.4">dolor sit ame</tspan><tspan class="cls-19" x="62.08" y="14.4">t</tspan><tspan x="66.02" y="14.4">, </tspan><tspan class="cls-20" x=".09" y="28.8">c</tspan><tspan x="5.39" y="28.8">onse</tspan><tspan class="cls-21" x="29.41" y="28.8">c</tspan><tspan class="cls-20" x="34.94" y="28.8">t</tspan><tspan x="38.84" y="28.8">etuer </tspan><tspan x="-3.23" y="43.2">adipiscing eli</tspan><tspan class="cls-19" x="62.27" y="43.2">t</tspan><tspan x="66.2" y="43.2">, </tspan><tspan x="10.01" y="57.6">sed diam </tspan></text><g><line class="cls-10" x1="242.49" y1="202.32" x2="242.49" y2="129.48"/><rect class="cls-8" x="196.43" y="201.48" width="93" height="28"/><rect class="cls-17" x="189.28" y="26.27" width="106.41" height="98.67" rx="20.4" ry="20.4" transform="translate(318.09 -166.89) rotate(90)"/></g><line class="cls-2" x1="148.77" y1="280.15" x2="148.77" y2="222.15"/><rect class="cls-13" x="102.27" y="195.15" width="93" height="28"/><rect class="cls-13" x="95.57" y="272.94" width="106.41" height="98.67" rx="20.4" ry="20.4" transform="translate(471.04 173.5) rotate(90)"/><g><line class="cls-12" x1="336.2" y1="289.15" x2="336.2" y2="231.15"/><rect class="cls-5" x="291" y="208.15" width="93" height="28"/><rect class="cls-5" x="283" y="282.94" width="106.41" height="98.67" rx="20.4" ry="20.4" transform="translate(668.48 -3.93) rotate(90)"/></g><text class="cls-15" transform="translate(30.96 211.04)"><tspan x="0" y="0">2007</tspan></text><text class="cls-15" transform="translate(123.96 217.04)"><tspan x="0" y="0">2013</tspan></text><text class="cls-15" transform="translate(216.96 223.04)"><tspan x="0" y="0">2015</tspan></text><text class="cls-15" transform="translate(310.96 231.04)"><tspan x="0" y="0">2018</tspan></text><g><path class="cls-1" d="M52.56,33.41s-9.07-9.16,0-14.03c0,0,2.18-.87,5.23,0,0,0,9.53,3.4,.47,14.03"/><polyline class="cls-7" points="54.31 31.79 52.08 25.72 53.91 26.93 54.9 25.13 56.08 26.75 57.05 25.31 57.27 26.93 58.61 25.72 56.53 31.79"/><line class="cls-7" x1="52.27" y1="34.91" x2="58.42" y2="34.91"/><line class="cls-7" x1="53.22" y1="37.02" x2="57.48" y2="37.02"/><line class="cls-7" x1="54.62" y1="39" x2="56.08" y2="39"/></g><polygon class="cls-6" points="135.33 289 135.33 286.38 136.19 286.38 136.19 282.02 135.76 282.11 135.76 281.39 141.8 278.04 144.07 279.39 144.07 275.48 145.71 275.48 145.71 280.38 147.41 281.3 152.89 278.17 158.88 281.56 158.99 282.34 158.52 282.02 158.52 287.17 160.45 287.17 160.45 287.82 162.91 289 135.33 289"/><path d="M242.88,27.99c3.18-.02,5.84,2.44,6.1,5.54,.1,1.24-.32,2.33-.83,3.4-1.06,2.2-2.47,4.18-3.95,6.12-.25,.33-.5,.66-.77,.98-.32,.38-.8,.39-1.1,0-1.85-2.34-3.62-4.74-4.88-7.47-.43-.94-.75-1.91-.65-2.97,.16-1.62,.82-2.99,2.06-4.07,.85-.74,1.82-1.19,2.9-1.41,.39-.08,.77-.14,1.12-.11Zm.02,1.33c-2.56-.12-4.74,2.12-4.75,4.63-.02,2.66,2.05,4.8,4.75,4.82,2.62,.01,4.72-2.14,4.7-4.78-.02-2.68-2.29-4.72-4.7-4.67Z"/><path d="M240.01,33.99c-.07-1.47,1.29-2.8,2.84-2.78,1.46,.02,2.77,1.19,2.78,2.78,0,1.57-1.2,2.84-2.83,2.84-1.69,0-2.86-1.42-2.79-2.83Z"/><g><circle cx="337.5" cy="292.5" r="8.5"/><ellipse class="cls-11" cx="337.5" cy="293" rx="14.62" ry="3.74" transform="translate(-63.96 96.56) rotate(-14.89)"/></g><text class="cls-16" transform="translate(209.63 58.92)"><tspan class="cls-18" x="0" y="0">L</tspan><tspan x="5.5" y="0">o</tspan><tspan class="cls-22" x="12.08" y="0">r</tspan><tspan x="15.89" y="0">em ipsum </tspan><tspan x="-3.04" y="14.4">dolor sit ame</tspan><tspan class="cls-19" x="62.08" y="14.4">t</tspan><tspan x="66.02" y="14.4">, </tspan><tspan class="cls-20" x=".09" y="28.8">c</tspan><tspan x="5.39" y="28.8">onse</tspan><tspan class="cls-21" x="29.41" y="28.8">c</tspan><tspan class="cls-20" x="34.94" y="28.8">t</tspan><tspan x="38.84" y="28.8">etuer </tspan><tspan x="-3.23" y="43.2">adipiscing eli</tspan><tspan class="cls-19" x="62.27" y="43.2">t</tspan><tspan x="66.2" y="43.2">, </tspan><tspan x="10.01" y="57.6">sed diam </tspan></text><text class="cls-16" transform="translate(114.63 305.92)"><tspan class="cls-18" x="0" y="0">L</tspan><tspan x="5.5" y="0">o</tspan><tspan class="cls-22" x="12.08" y="0">r</tspan><tspan x="15.89" y="0">em ipsum </tspan><tspan x="-3.04" y="14.4">dolor sit ame</tspan><tspan class="cls-19" x="62.08" y="14.4">t</tspan><tspan x="66.02" y="14.4">, </tspan><tspan class="cls-20" x=".09" y="28.8">c</tspan><tspan x="5.39" y="28.8">onse</tspan><tspan class="cls-21" x="29.41" y="28.8">c</tspan><tspan class="cls-20" x="34.94" y="28.8">t</tspan><tspan x="38.84" y="28.8">etuer </tspan><tspan x="-3.23" y="43.2">adipiscing eli</tspan><tspan class="cls-19" x="62.27" y="43.2">t</tspan><tspan x="66.2" y="43.2">, </tspan><tspan x="10.01" y="57.6">sed diam </tspan></text><text class="cls-16" transform="translate(303.63 317.92)"><tspan class="cls-18" x="0" y="0">L</tspan><tspan x="5.5" y="0">o</tspan><tspan class="cls-22" x="12.08" y="0">r</tspan><tspan x="15.89" y="0">em ipsum </tspan><tspan x="-3.04" y="14.4">dolor sit ame</tspan><tspan class="cls-19" x="62.08" y="14.4">t</tspan><tspan x="66.02" y="14.4">, </tspan><tspan class="cls-20" x=".09" y="28.8">c</tspan><tspan x="5.39" y="28.8">onse</tspan><tspan class="cls-21" x="29.41" y="28.8">c</tspan><tspan class="cls-20" x="34.94" y="28.8">t</tspan><tspan x="38.84" y="28.8">etuer </tspan><tspan x="-3.23" y="43.2">adipiscing eli</tspan><tspan class="cls-19" x="62.27" y="43.2">t</tspan><tspan x="66.2" y="43.2">, </tspan><tspan x="10.01" y="57.6">sed diam </tspan></text></g></svg>